# xmcd CD database file
#
# Track frame offsets:
#	150
#	19666
#	41717
#	66186
#	88024
#	101061
#	117881
#	132068
#	165904
#	190251
#	218914
#	237478
#	251410
#	270616
#
# Disc length: 3883 seconds
#
# Revision: 0
# Processed by: cddbd v1.5.1PL2 Copyright (c) Steve Scherf et al.
# Submitted via: CDex 1.51
#
DISCID=be0f290e
DTITLE=Eric Sardinas - Treat Me Right
DYEAR=1999
DGENRE=Blues
TTITLE0=Treat Me Right
TTITLE1=Write Me Few Lines
TTITLE2=Murdering Blues
TTITLE3=Cherry Bomb
TTITLE4=My Baby's Got Something
TTITLE5=Give Me Love
TTITLE6=Rollin' And Tumblin
TTITLE7=Low Down Love
TTITLE8=Get Along Rider
TTITLE9=Goin' To The River
TTITLE10=I Can't Be Satisfied
TTITLE11=Sweetwater Blues
TTITLE12=Down In The Bottom
TTITLE13=Tired Of Tryin
EXTD=YEAR: 1999
EXTT0=
EXTT1=
EXTT2=
EXTT3=
EXTT4=
EXTT5=
EXTT6=
EXTT7=
EXTT8=
EXTT9=
EXTT10=
EXTT11=
EXTT12=
EXTT13=
PLAYORDER=
